HIERARCHY
ROOT Pelvis
{
	OFFSET 0.000000 0.000000 0.000000
	CHANNELS 6 Xposition Yposition Zposition Zrotation Yrotation Xrotation 
	JOINT Left_hip
	{
		OFFSET 0.076090 -0.089427 -0.010735
		CHANNELS 3 Zrotation Yrotation Xrotation
		JOINT Left_knee
		{
			OFFSET 0.030200 -0.359518 -0.003501
			CHANNELS 3 Zrotation Yrotation Xrotation
			JOINT Left_ankle
			{
				OFFSET -0.011005 -0.371022 -0.045888
				CHANNELS 3 Zrotation Yrotation Xrotation
				JOINT Left_foot
				{
					OFFSET 0.023930 -0.052103 0.111084
					CHANNELS 3 Zrotation Yrotation Xrotation
					End Site
					{
						OFFSET 0.000000 0.000000 0.000000
					}
				}
			}
		}
	}
	JOINT Right_hip
	{
		OFFSET -0.073836 -0.088112 -0.007709
		CHANNELS 3 Zrotation Yrotation Xrotation
		JOINT Right_knee
		{
			OFFSET -0.035715 -0.367809 -0.006536
			CHANNELS 3 Zrotation Yrotation Xrotation
			JOINT Right_ankle
			{
				OFFSET 0.013718 -0.371958 -0.043815
				CHANNELS 3 Zrotation Yrotation Xrotation
				JOINT Right_foot
				{
					OFFSET -0.021936 -0.046387 0.114542
					CHANNELS 3 Zrotation Yrotation Xrotation
					End Site
					{
						OFFSET 0.000000 0.000000 0.000000
					}
				}
			}
		}
	}
	JOINT Spine1
	{
		OFFSET -0.001865 0.102064 -0.019455
		CHANNELS 3 Zrotation Yrotation Xrotation
		JOINT Spine2
		{
			OFFSET 0.003082 0.129260 -0.001938
			CHANNELS 3 Zrotation Yrotation Xrotation
			JOINT Spine3
			{
				OFFSET 0.001104 0.048093 0.026561
				CHANNELS 3 Zrotation Yrotation Xrotation
				JOINT Neck
				{
					OFFSET -0.002010 0.204222 -0.047183
					CHANNELS 3 Zrotation Yrotation Xrotation
					JOINT Head
					{
						OFFSET 0.005050 0.063649 0.048489
						CHANNELS 3 Zrotation Yrotation Xrotation
						End Site
						{
							OFFSET 0.000000 0.000000 0.000000
						}
					}
				}
				JOINT Left_collar
				{
					OFFSET 0.072979 0.114065 -0.031633
					CHANNELS 3 Zrotation Yrotation Xrotation
					JOINT Left_shoulder
					{
						OFFSET 0.083419 0.032092 -0.006530
						CHANNELS 3 Zrotation Yrotation Xrotation
						JOINT Left_elbow
						{
							OFFSET 0.239393 -0.012014 -0.025060
							CHANNELS 3 Zrotation Yrotation Xrotation
							JOINT Left_wrist
							{
								OFFSET 0.227297 0.008116 0.000384
								CHANNELS 3 Zrotation Yrotation Xrotation
								JOINT Left_palm
								{
									OFFSET 0.074607 -0.009248 -0.012277
									CHANNELS 3 Zrotation Yrotation Xrotation
									End Site
									{
										OFFSET 0.000000 0.000000 0.000000
									}
								}
							}
						}
					}
				}
				JOINT Right_collar
				{
					OFFSET -0.074980 0.111880 -0.037894
					CHANNELS 3 Zrotation Yrotation Xrotation
					JOINT Right_shoulder
					{
						OFFSET -0.087565 0.034353 -0.009323
						CHANNELS 3 Zrotation Yrotation Xrotation
						JOINT Right_elbow
						{
							OFFSET -0.236838 -0.013719 -0.019794
							CHANNELS 3 Zrotation Yrotation Xrotation
							JOINT Right_wrist
							{
								OFFSET -0.235053 0.006433 -0.003853
								CHANNELS 3 Zrotation Yrotation Xrotation
								JOINT Right_palm
								{
									OFFSET -0.075499 -0.006894 -0.009792
									CHANNELS 3 Zrotation Yrotation Xrotation
									End Site
									{
										OFFSET 0.000000 0.000000 0.000000
									}
								}
							}
						}
					}
				}
			}
		}
	}
}
MOTION
Frames: 5
Frame Time: 0.100000
0.077372 0.021001 0.049488 166.042929 23.176669 -33.370357 -10.475158 -2.062977 4.707845 -3.062788 10.079535 33.654620 1.661823 10.717350 -0.713635 -3.747335 12.362918 -24.127622 15.336478 -5.044341 24.723502 1.743710 8.689208 -8.334152 10.406277 -7.510340 -4.986845 -22.823859 11.646522 -8.298086 8.230785 -0.580716 0.589409 2.069017 -3.824029 9.512492 4.932281 -2.870196 4.223176 -9.887914 -3.874549 7.801276 4.377836 17.191349 -2.569760 -9.372495 -12.522118 2.303638 -74.658032 -32.757862 30.219816 154.086269 -44.085610 -142.233499 -2.797488 -13.992098 -73.927589 8.948488 -0.821885 28.790814 0.853650 3.129493 8.687359 42.914427 -22.377958 25.405358 78.700872 71.544962 81.309798 11.165651 9.175581 -52.602761 -0.725934 2.043329 9.329302 
0.073723 0.020529 0.038081 166.255312 22.497338 -33.756914 -10.097923 -3.237786 -0.403539 -2.326743 11.872061 41.004705 -0.241995 11.264685 3.601008 -2.057182 11.661370 -23.856441 15.511048 -3.976426 24.191258 1.442799 9.812608 -7.427527 8.248725 -8.842105 -4.872843 -20.681972 10.556090 -7.519797 8.207519 -0.386602 0.885615 2.968911 -4.698650 9.471032 5.001528 -3.316608 4.215292 -8.696939 -2.327471 8.312878 3.250457 19.488464 -3.137422 -8.422988 -9.403030 2.574991 -66.809672 -28.245419 22.072421 148.790365 -51.368346 -135.142272 -11.334748 -16.595003 -64.981977 7.679028 0.233405 23.462502 -0.402341 0.720285 6.959709 40.817671 -19.859250 22.415363 71.986966 75.155608 78.370619 22.396757 11.146338 -48.752179 -2.584207 1.447701 9.921296 
0.072578 0.021249 0.022464 167.290244 20.964607 -34.549691 -8.049239 -3.218539 -8.710926 -1.442558 14.702456 47.456913 -0.480982 11.271188 0.872419 -0.226143 13.862818 -22.273620 14.151304 -4.734120 25.420516 0.807107 12.504960 -8.563916 9.774867 -9.830612 -3.557558 -22.936884 10.800933 -9.765502 8.375339 0.961922 3.253311 3.725138 -5.029913 9.783348 5.268061 -3.041392 4.699611 -7.219007 0.528290 5.910034 1.027288 20.545241 -4.770672 -6.928251 -6.225936 2.108694 -61.203408 -23.388562 14.432373 147.725747 -58.906745 -128.394275 -19.766576 -14.862244 -51.031007 4.621363 0.327102 15.800442 -1.341021 -0.973699 5.670915 40.224171 -17.446680 18.117069 67.817587 79.915079 77.217905 26.311194 10.167383 -44.593955 0.970062 1.561396 6.880598 
0.071481 0.020781 0.007909 168.185227 20.094436 -35.230379 -6.021285 -1.629456 -12.256150 -2.662070 11.591016 30.629023 -5.567221 9.099799 3.599247 7.130596 17.061986 -20.266762 12.703312 -5.139927 25.562535 0.918876 14.462615 -7.892625 12.484546 -11.088742 -2.880774 -26.267528 11.259711 -12.610564 8.971399 0.896594 5.603751 3.628745 -4.752268 10.164557 5.571011 -2.997615 5.283036 -5.238030 5.450525 2.925316 -2.199987 21.679470 -6.843691 -5.866412 -1.616897 1.225958 -59.818741 -17.246451 9.948203 148.021686 -64.306318 -121.063595 -23.686305 -9.974212 -35.503274 2.418698 0.333902 5.996271 -3.314036 -3.088865 3.849588 40.369526 -14.119200 14.764849 76.621130 84.023716 88.662705 27.311290 9.746195 -40.107413 3.514624 0.894257 3.974503 
0.070384 0.022086 -0.001530 168.287986 21.016978 -36.340972 -3.335865 -1.036746 -10.039901 -2.044666 0.684533 7.031180 -11.527787 6.775022 6.621293 16.050437 19.752741 -17.496114 11.962502 -5.186665 25.891824 1.075631 16.046784 -7.079803 14.626987 -13.993169 -3.819195 -28.952631 11.428755 -14.547956 9.056422 -0.048377 7.202439 3.170815 -4.280776 10.171916 5.708005 -3.530011 6.655755 -3.267948 10.176015 0.269293 -5.096112 21.867197 -8.275887 -4.673790 4.578208 0.706976 -60.164065 -11.363393 6.987056 150.747444 -67.281754 -117.112100 -22.003730 -5.869628 -24.470250 1.208654 0.407500 -2.330632 -6.031563 -7.296610 1.957876 41.241727 -13.290085 12.626530 149.440647 84.866121 163.869541 25.259159 10.457925 -38.135243 5.077791 -0.212179 1.859835 
